# xmcd
#
# Track frame offsets:
#	150
#	19467
#	39800
#	53255
#	79315
#	102955
#	121177
#	135717
#	161622
#	179622
#	202965
#	221807
#
# Disc length: 3222 seconds
#
# Revision: 1
# Processed by: cddbd v1.4PL0 Copyright (c) Steve Scherf et al.
# Submitted via: audiograbber 1.81.03
#
DISCID=9f0c940c
DTITLE=Little Milton - Guitar Man
DYEAR=1900
DGENRE=
TTITLE0=Guitar Man
TTITLE1=Take Time Out To Hear Some Blues
TTITLE2=Still Some Meat Left On This Bone
TTITLE3=Blues Tune Up
TTITLE4=I Could Have Saved Our Love
TTITLE5=I Wish I Could Be Your Lover
TTITLE6=You Were On The Right Street
TTITLE7=The Juke Joint Is Calling Me
TTITLE8=Mr. and Mrs. Untrue
TTITLE9=Just One Moment
TTITLE10=Whenever You Come Around
TTITLE11=My Way
EXTD=
EXTT0=
EXTT1=
EXTT2=
EXTT3=
EXTT4=
EXTT5=
EXTT6=
EXTT7=
EXTT8=
EXTT9=
EXTT10=
EXTT11=
PLAYORDER=
